<svg width="35" height="35" viewBox="0 0 35 35" fill="none" xmlns="http://www.w3.org/2000/svg">
<path d="M26.9999 17.8943C26.9999 18.448 26.6579 18.9056 26.2142 18.9781L26.0908 18.988L7.90901 18.988C7.40693 18.988 6.99992 18.4983 6.99992 17.8943C6.99992 17.3406 7.34192 16.8829 7.78565 16.8105L7.90901 16.8005L26.0908 16.8005C26.5929 16.8005 26.9999 17.2902 26.9999 17.8943Z" fill="#626262"/>
<path d="M15.7923 25.9048C16.2203 26.331 16.2218 27.0235 15.7956 27.4516C15.4081 27.8407 14.8006 27.8773 14.3717 27.5606L14.2488 27.4549L5.42589 18.6699C5.03559 18.2813 5.00008 17.6715 5.31939 17.2427L5.42583 17.1199L14.2487 8.3334C14.6768 7.90715 15.3693 7.90858 15.7955 8.3366C16.183 8.72571 16.2171 9.33342 15.8985 9.76094L15.7923 9.8834L7.74812 17.8953L15.7923 25.9048Z" fill="#626262"/>
</svg>
