<svg width="35" height="35" viewBox="0 0 35 35" fill="none" xmlns="http://www.w3.org/2000/svg">
<path d="M8.00008 17.094C8.00008 16.5403 8.34209 16.0827 8.78582 16.0102L8.90918 16.0002L27.091 16.0002C27.5931 16.0002 28.0001 16.4899 28.0001 17.094C28.0001 17.6477 27.6581 18.1053 27.2144 18.1778L27.091 18.1877L8.90917 18.1877C8.4071 18.1877 8.00008 17.6981 8.00008 17.094Z" fill="#626262"/>
<path d="M19.2077 9.08348C18.7797 8.65727 18.7782 7.96475 19.2044 7.53669C19.5919 7.14755 20.1994 7.11094 20.6283 7.42772L20.7512 7.53336L29.5741 16.3184C29.9644 16.707 29.9999 17.3167 29.6806 17.7456L29.5742 17.8684L20.7513 26.6549C20.3232 27.0811 19.6307 27.0797 19.2045 26.6517C18.817 26.2626 18.7829 25.6549 19.1015 25.2273L19.2077 25.1049L27.2519 17.093L19.2077 9.08348Z" fill="#626262"/>
</svg>
