<svg width="69" height="69" viewBox="0 0 69 69" fill="none" xmlns="http://www.w3.org/2000/svg">
<circle cx="34.5" cy="34.5" r="34.5" fill="white"/>
<path d="M36.953 18.1125C33.4796 18.675 31.2999 20.9039 30.646 24.5742C30.5616 25.0664 30.5264 25.8961 30.5053 28.35L30.4702 31.5H27.8757H25.2811V34.6992V37.8984H27.8827H30.4843V45.9492V54H33.7186H36.953V45.9492V37.8984H39.4491C40.8202 37.8984 41.9452 37.8773 41.9452 37.8562C41.9452 37.8352 42.121 36.4289 42.3319 34.7344C42.5428 33.0398 42.7186 31.6195 42.7186 31.5773C42.7186 31.5211 41.8468 31.5 39.8288 31.5H36.946L36.9671 28.6664C36.9882 26.1633 37.0022 25.8047 37.1147 25.5234C37.3889 24.8203 37.8038 24.4336 38.5491 24.1664C38.9147 24.0328 39.1608 24.0187 41.1225 23.9906L43.2811 23.9625V21.1219C43.2811 18.907 43.26 18.2672 43.1968 18.2461C42.9577 18.1687 41.0944 18.0633 39.4491 18.0352C38.0218 18.007 37.4733 18.0281 36.953 18.1125Z" fill="#48B74A"/>
</svg>
