<svg width="69" height="69" viewBox="0 0 69 69" fill="none" xmlns="http://www.w3.org/2000/svg">
<circle cx="34.5" cy="34.5" r="34.5" fill="white"/>
<g clip-path="url(#clip0_19_590)">
<path d="M28.0426 16.5018C25.6602 16.6029 24.0286 16.9061 22.6496 17.4981C21.3573 18.054 20.5921 18.5666 19.6391 19.5124C18.354 20.7902 17.5526 22.2269 17.0473 24.1545C16.5997 25.8583 16.4986 27.8148 16.4986 34.9116C16.4986 41.8929 16.5925 43.871 17.0112 45.5748C18.0508 49.8127 21.1552 52.5128 25.7251 53.1409C27.0319 53.3141 29.7753 53.3936 35.0167 53.3936C39.8898 53.3936 42.6982 53.3214 43.9616 53.1697C46.5462 52.8665 48.5677 51.9713 50.1632 50.4408C51.9608 48.7081 52.9138 46.6361 53.2604 43.6833C53.3975 42.5282 53.3975 27.1217 53.2604 26.0316C52.9788 23.8224 52.3218 22.0031 51.2822 20.6097C50.7696 19.9167 49.6723 18.8698 48.9864 18.4006C47.4342 17.3537 45.5644 16.7762 43.1025 16.5668C41.9402 16.473 30.0135 16.4224 28.0426 16.5018ZM43.6584 19.9889C45.716 20.2921 46.8711 20.8047 47.9829 21.9093C48.7048 22.6312 49.1019 23.2665 49.4557 24.2484C50.0477 25.9089 50.1054 26.7896 50.1054 34.9477C50.1054 39.6476 50.0766 41.9073 50.0116 42.6654C49.8022 45.1705 49.3041 46.5206 48.1345 47.7696C46.9144 49.0691 45.3911 49.7116 43.0303 49.9282C41.7525 50.0509 31.1903 50.1087 28.7573 50.0076C27.66 49.9643 26.5121 49.8921 26.2016 49.8488C24.8371 49.6611 23.516 49.1774 22.6929 48.5781C22.1804 48.1955 21.3573 47.3003 21.0541 46.7949C20.4477 45.7842 20.0867 44.3619 19.964 42.5571C19.7474 39.2794 19.8196 28.0314 20.065 26.1688C20.3249 24.2412 20.9242 22.9416 22.0576 21.8443C23.2994 20.6386 24.931 20.0538 27.4578 19.895C28.0065 19.8661 31.6957 19.8445 35.6664 19.8589C41.8247 19.8734 43.0014 19.8878 43.6584 19.9889Z" fill="#48B74A"/>
<path d="M43.875 23.0714C43.0592 23.4829 42.6693 24.1183 42.6693 25.0568C42.6693 25.7354 42.8282 26.1397 43.2902 26.6018C43.7523 27.0566 44.1566 27.2227 44.8352 27.2227C45.3189 27.2227 45.4777 27.1938 45.8243 27.0205C46.5535 26.6595 46.965 26.0314 47.0227 25.194C47.0733 24.4504 46.9072 24.0172 46.3946 23.4974C45.9181 23.0209 45.4994 22.8549 44.7991 22.8549C44.4092 22.8549 44.236 22.8982 43.875 23.0714Z" fill="#48B74A"/>
<path d="M33.2914 25.5692C31.3927 25.9158 29.7105 26.8038 28.2955 28.226C26.4184 30.0959 25.516 32.2834 25.516 34.9113C25.516 36.4996 25.812 37.8063 26.469 39.1203C28.4904 43.1343 32.9377 45.1919 37.2621 44.1162C38.9659 43.6902 40.2799 42.9538 41.5578 41.7193C42.7057 40.6075 43.4781 39.3946 43.9619 37.9435C44.3084 36.8967 44.4383 36.0881 44.4383 34.9113C44.4383 33.7417 44.3084 32.9259 43.9691 31.9008C43.507 30.5146 42.8356 29.4172 41.7888 28.3343C40.3593 26.8615 38.5761 25.9086 36.6124 25.562C35.811 25.4249 34.0711 25.4249 33.2914 25.5692ZM36.1503 28.8758C39.4569 29.5111 41.6516 32.7599 41.0163 36.0881C40.6264 38.1023 39.1464 39.8928 37.2549 40.6219C36.3308 40.9829 35.7966 41.0695 34.7281 41.0262C33.97 40.9973 33.674 40.954 33.1759 40.7952C30.9884 40.1021 29.3929 38.3333 28.9453 36.1097C28.772 35.2506 28.837 33.915 29.0969 33.1064C29.7755 30.955 31.5876 29.3162 33.7462 28.883C34.3888 28.753 35.5006 28.753 36.1503 28.8758Z" fill="#48B74A"/>
</g>
<defs>
<clipPath id="clip0_19_590">
<rect width="36.9639" height="36.9639" fill="white" transform="translate(16.4264 16.4297)"/>
</clipPath>
</defs>
</svg>
