<svg width="69" height="69" viewBox="0 0 69 69" fill="none" xmlns="http://www.w3.org/2000/svg">
<circle cx="34.5" cy="34.5" r="34.5" fill="white"/>
<g clip-path="url(#clip0_19_597)">
<path d="M21.5596 13.5864C20.4879 13.8174 19.3905 14.6773 18.9028 15.6656C18.1584 17.1865 18.4408 18.9705 19.6087 20.1898C21.1489 21.7942 23.7094 21.7942 25.2431 20.1898C26.4175 18.9641 26.6935 17.1929 25.9426 15.672C25.6025 14.9789 24.8517 14.2281 24.1779 13.9072C23.3308 13.5029 22.4452 13.3938 21.5596 13.5864Z" fill="#48B74A"/>
<path d="M41.6843 23.9759C39.7013 24.3545 38.0135 25.4326 36.9739 26.992L36.6723 27.4413L36.6531 25.9139L36.6402 24.393H33.3674H30.0945V35.3667V46.3403H33.4957H36.8969V40.5776C36.8969 36.9967 36.9226 34.5453 36.9675 34.0896C37.1857 31.7473 38.0585 30.4446 39.7013 30.0082C40.2853 29.8478 41.2735 29.8157 41.8254 29.9376C42.8843 30.1622 43.4747 30.6178 43.9239 31.5419C44.5015 32.7484 44.5336 33.1719 44.5336 40.3786V46.3403H47.9347H51.3359V39.7433C51.3359 35.9699 51.3103 32.7676 51.2718 32.2543C51.0536 29.2317 50.3926 27.3065 49.0963 25.9203C48.2235 24.9898 47.062 24.3866 45.5026 24.0593C44.6619 23.886 42.4287 23.8411 41.6843 23.9759Z" fill="#48B74A"/>
<path d="M19.0374 24.4379C19.0118 24.4572 18.9925 29.3985 18.9925 35.4116V46.3403H22.4258H25.8591L25.8462 35.3795L25.827 24.4251L22.4515 24.4058C20.5969 24.3994 19.0567 24.4123 19.0374 24.4379Z" fill="#48B74A"/>
</g>
<defs>
<clipPath id="clip0_19_597">
<rect width="32.8568" height="32.8568" fill="white" transform="translate(18.4791 13.4834)"/>
</clipPath>
</defs>
</svg>
