<svg width="69" height="69" viewBox="0 0 69 69" fill="none" xmlns="http://www.w3.org/2000/svg">
<circle cx="34.5" cy="34.5" r="34.5" fill="white"/>
<g clip-path="url(#clip0_19_585)">
<path d="M39.4663 21.2945C36.7569 21.7859 34.612 23.7648 33.9015 26.4476C33.7753 26.9058 33.7487 27.1781 33.7487 28.0945C33.7421 28.6988 33.762 29.3164 33.7952 29.4758L33.8417 29.7679L33.3968 29.7215C30.4683 29.4558 28.1042 28.7851 25.7468 27.5566C23.5687 26.4211 21.3042 24.6347 19.9163 22.9679C19.7038 22.7156 19.5046 22.523 19.4714 22.5363C19.4315 22.5496 19.2921 22.8152 19.1526 23.134C18.1964 25.2922 18.3757 27.7824 19.6175 29.7215C19.9827 30.2859 20.5804 30.9566 21.0651 31.3418L21.5632 31.7468H21.2909C20.7065 31.7468 19.4913 31.4148 18.8339 31.0828C18.6944 31.0097 18.5483 30.95 18.5218 30.95C18.4288 30.95 18.5483 32.1652 18.7011 32.7496C19.3054 35.0406 21.0054 36.8535 23.2698 37.6105C23.6417 37.7367 23.9073 37.8562 23.8542 37.8761C23.5554 37.989 22.5726 38.0687 21.8089 38.0422L20.9456 38.0023L20.9921 38.175C21.0651 38.4672 21.5565 39.3968 21.862 39.8218C23.0308 41.4687 24.9499 42.5976 26.8226 42.7504C27.1015 42.7703 27.3339 42.8101 27.3339 42.8433C27.3339 42.9496 25.8464 43.8726 24.9366 44.3242C22.8648 45.3535 20.8128 45.7984 18.4023 45.7453L17.1737 45.7187L17.519 45.9379C18.0304 46.2566 19.571 47.0336 20.2616 47.3191C23.987 48.8664 28.3366 49.2183 32.4405 48.3086C38.4769 46.9672 43.4507 42.7703 45.9608 36.8933C47.03 34.3832 47.5679 31.9129 47.6276 29.2566L47.6476 28.0613L48.1323 27.6761C48.7433 27.1781 49.4339 26.5207 49.9585 25.9363C50.4034 25.4316 51.0542 24.5617 51.0144 24.5285C51.0011 24.5152 50.8019 24.5816 50.5694 24.6746C49.6862 25.0332 47.6476 25.5511 47.3421 25.4914C47.2691 25.4781 47.3222 25.4117 47.5148 25.2855C48.0194 24.9535 48.9159 24.0304 49.2944 23.4593C49.6265 22.9679 50.1112 21.9918 50.1112 21.8191C50.1112 21.7793 49.7062 21.9519 49.2081 22.1976C48.305 22.6359 47.1296 23.0609 46.2132 23.28L45.7284 23.3929L45.3233 23.0211C43.7694 21.58 41.5315 20.9226 39.4663 21.2945Z" fill="#48B74A"/>
</g>
<defs>
<clipPath id="clip0_19_585">
<rect width="34" height="34" fill="white" transform="translate(17.1073 18.001)"/>
</clipPath>
</defs>
</svg>
